<?xml version="1.0" encoding="utf-8" ?><svg xmlns="http://www.w3.org/2000/svg" xmlns:xlink="http://www.w3.org/1999/xlink" width="1024" height="1024" viewBox="0 0 1024 1024"><path fill="#140B10" d="M0 0L1024 0L1024 1024L0 1024L0 0Z"/><path fill="#F7682E" d="M634.403 197.045C666.316 197.145 698.228 197.075 730.14 196.836C724.965 204.245 716.028 215.131 710.26 222.462L671.376 271.665L547.578 428.201L434.818 571.124L406.375 607.428C400.932 614.459 394.624 623.119 388.814 629.684L293.332 629.395C303.725 617.3 313.986 603.58 323.872 590.92L363.622 540.612L553.945 298.619L599.864 240.414C610.603 226.681 623.142 210.188 634.403 197.045Z"/><path fill="#F7682E" d="M734.846 279.844C735.58 281.831 735.371 300.514 735.398 304.283L735.468 399.784C731.779 405.865 721.46 418.401 716.697 424.432C704.119 440.08 691.622 455.793 679.208 471.571L555.236 629.556L460.969 629.56L460.322 629.311C460.681 627.47 502.634 575.313 506.744 569.983L665.195 368.002L711.971 308.509C718.808 299.842 727.78 287.741 734.846 279.844Z"/><path fill="#F7682E" d="M467.022 197.1C498.917 196.67 531.138 197.154 563.113 196.851L392.916 412.946C372.489 438.861 351.781 466.304 330.912 491.646C316.869 509.197 302.854 527.49 288.923 545.221C289.12 504.706 288.706 463.823 289.389 423.339C329.201 372.103 369.308 321.098 409.709 270.326L445.966 224.184C452.793 215.387 459.966 205.606 467.022 197.1Z"/><path fill="#F5F0E7" d="M252.215 715.606C254.655 715.457 257.842 715.385 260.326 715.499C284.434 716.587 315.061 709.675 332.516 731.369C350.765 754.049 348.727 797.864 325.83 816.905C322.973 818.97 320.131 820.82 316.928 822.312C312.137 824.543 307.005 825.862 301.777 826.555C294.241 827.555 255.72 828.347 249.611 825.87C247.038 824.827 244.795 822.362 243.885 819.735C242.614 816.064 242.67 736.912 243.124 727.311C243.221 725.249 243.28 723.225 244.236 721.347C245.907 718.062 248.852 716.659 252.215 715.606Z"/><path fill="#140B10" d="M267.377 734.046C280.309 733.979 300.907 731.763 310.479 741.108C323.302 753.627 322.871 787.241 311.05 800.391C299.806 810.867 281.886 808.536 266.994 808.48C267.25 784.276 266.392 757.985 267.377 734.046Z"/><path fill="#F5F0E7" d="M130.918 793.846C133.071 787.727 135.256 777.619 136.817 771.109C139.445 760.041 142.196 749.003 145.068 737.995C146.333 733.096 148.196 724.531 150.304 720.234C154.275 712.139 171.947 711.789 175.053 721.57C177.915 730.581 179.992 739.289 182.251 748.3C186.136 763.26 189.892 778.254 193.518 793.279C197.809 777.112 200.518 760.345 204.189 744.074C205.394 738.735 208.23 717.637 213.693 715.905C240.401 707.439 227.708 740.677 224.916 752.635L214.693 795.742C212.843 803.682 210.989 813.637 208.207 821.151C204.57 831.467 184.673 830.221 181.789 820.901C174.42 797.094 169.097 771.594 162.3 747.679C157.196 764.716 153.68 782.9 148.657 799.893C144.753 813.099 144.862 831.934 125.791 828.044C122.059 827.283 118.531 824.881 116.525 821.53C108.412 790.716 100.897 759.332 94.0548 728.196C92.5106 721.168 95.6721 717.259 101.605 714.58C117.17 713.817 117.059 723.012 119.428 735.483C123.118 754.909 127.332 774.429 130.918 793.846Z"/><path fill="#F5F0E7" d="M587.1 793.903C589.271 780.685 593.304 765.757 595.78 752.321C597.569 742.61 600.123 731.136 602.694 721.587C603.091 720.267 605.434 716.393 606.757 715.938C634.729 706.315 619.669 746.612 618.112 753.244C613.849 768.235 611.448 783.043 606.888 799.793C603.206 813.317 603.922 835.043 580.53 826.745C574.776 824.703 573.841 818.821 572.317 813.265C566.458 791.908 562.193 769.29 555.469 748.173C550.676 767.502 544.871 786.669 540.051 806.005C538.833 810.343 537.954 815.082 536.633 819.357C534.144 827.415 523.409 830.349 516.201 827.296C513.742 826.254 510.81 824.378 509.849 821.844C507.296 815.113 505.797 807.965 504.17 800.969L497.881 774.294L490.836 745.488C489.234 738.936 485.111 727.003 487.662 720.525C489.001 717.125 492.484 715.639 495.796 714.565C501.757 714.291 507.001 715.222 509.014 721.492C511.493 729.212 512.735 737.508 514.361 745.46C517.794 761.897 520.971 778.385 523.892 794.92C527.616 778.424 532.132 762.193 536.402 745.824C538.791 737.616 540.393 728.477 543.395 720.511C546.182 714.042 557.654 713.136 563.036 715.923C568.793 719.164 569.618 726.541 571.187 732.201C576.749 752.267 580.912 774.157 587.1 793.903Z"/><path fill="#F7682E" d="M734.947 492.971C736.043 494.321 735.401 617.669 735.34 629.514L628.605 629.396C628.213 629.136 628.458 629.345 628.136 628.55C629.954 625.559 636.555 618.114 639.239 614.683C649.291 601.756 659.426 588.893 669.643 576.096C691.078 549.183 713.172 519.064 734.947 492.971Z"/><path fill="#F7682E" d="M288.944 196.971L395.606 196.942L336.585 271.885C321.234 291.293 304.607 313.853 288.856 332.511L288.944 196.971Z"/><path fill="#F5F0E7" d="M433.528 714.057C437.823 713.614 442.205 714.023 445.226 717.501C447.049 719.591 447.938 722.337 447.686 725.1C446.906 733.764 425.33 751.775 418.033 758.1C424.916 770.881 434.347 783.326 441.61 795.936C445.198 802.166 453.309 811.944 452.004 819.195C451.491 822.186 449.786 824.84 447.278 826.548C444.65 828.288 441.445 828.928 438.35 828.329C431.323 826.938 424.492 813.466 420.753 807.72C413.818 797.061 407.422 785.914 400.468 775.246C394.413 781.941 389.447 786.944 382.96 793.258L382.897 801.499C383.013 811.9 384.878 836.836 363.709 825.915C358.194 823.07 359.41 808.408 359.399 802.372L359.36 773.757L359.34 742.103C359.34 736.111 359.215 730.1 359.665 724.141C360.31 715.601 371.116 712.185 377.687 716.626C379.841 718.024 381.661 720.742 382.059 723.339C382.882 728.707 382.649 734.84 382.683 740.304L382.962 765.22C390.881 756.122 400.225 746.616 408.595 737.9C414.678 731.564 426.263 717.634 433.528 714.057Z"/><path fill="#F5F0E7" d="M658.86 745.221C667.679 744.941 677.442 745.572 685.179 750.086C702.727 760.323 694.639 784.822 696.731 801.144C698.051 811.441 706.417 829.642 687.951 828.687C683.436 828.453 679.427 821.014 677.408 817.717C674.035 819.984 669.447 823.736 665.779 825.392C657.175 829.277 644.453 829.941 635.565 826.647C628.665 824.09 625.622 820.452 622.773 814.137C615.866 783.589 640.148 783.278 661.889 779.425C669.396 779.306 678.93 772.057 672.374 764.812C665.836 757.587 647.736 759.733 643.475 768.906C640.232 775.888 636.102 776.806 629.636 776.431C621.91 771.421 622.512 762.603 628.424 756.282C636.037 748.141 648.135 745.823 658.86 745.221Z"/><path fill="#140B10" d="M673.733 788.542C675.366 788.804 674.346 793.76 674.515 795.249C676.049 808.75 658.35 818.594 646.948 812.899L646.261 812.573C637.584 803.129 644.762 796.442 654.777 793.642L656.767 793.13C658.258 792.761 659.755 792.4 661.255 792.074L663.259 791.633C667.13 790.792 670.021 789.914 673.733 788.542Z"/><path fill="#F5F0E7" d="M827.177 745.678C842.981 743.919 858.021 748.804 866.513 762.499C870.846 768.19 876.085 789.33 866.054 791.703C854.056 794.542 836.783 792.217 824.077 792.67C821.678 792.756 813.743 791.287 814.383 795.308C815.167 800.227 816.767 804.531 820.562 807.929C823.677 810.729 827.576 812.507 831.732 813.023C848.169 815.083 851.323 800.751 863.177 800.34C871.069 802.431 871.118 809.444 866.864 815.08C853.985 832.142 822.98 832.669 806.848 820.849C788.859 807.669 786.678 777.451 799.362 760.197C806.181 750.92 816.188 747.171 827.177 745.678Z"/><path fill="#140B10" d="M830.866 761.718C843.485 762.412 847.95 766.81 849.779 779.573L833.625 779.629L813.965 779.663C816.003 769.139 819.382 762.866 830.866 761.718Z"/><path fill="#F5F0E7" d="M898.61 722.572C914.37 721.526 912.423 736.717 912.324 747.61C916.865 747.494 924.945 746.531 928.548 749.717C931.418 752.255 931.229 758.734 928.283 761.153C924.637 764.146 916.973 763.126 912.463 762.968C912.428 770.634 910.989 804.557 913.614 808.77C915.383 811.61 922.434 811.623 925.551 812.259C927.71 812.699 929.711 813.54 930.852 815.53C931.863 817.292 931.343 819.949 930.776 821.759C929.878 824.623 927.792 825.85 925.273 827.198C916.758 829.254 902.351 829.885 895.566 823.574C888.604 817.098 890.045 802.504 890.03 793.533L890.009 763.297C885.227 763.462 880.338 763.716 877.19 759.377C873.748 754.631 877.804 750.181 881.484 747.515C884.341 747.441 887.356 747.477 890.228 747.465C889.641 737.099 887.166 727.369 898.61 722.572Z"/><path fill="#F5F0E7" d="M763.688 714.639C767.495 714.505 775.708 715.702 776.293 719.75C778.79 737.039 777.094 758.728 777.477 775.995C777.82 791.449 777.445 803.304 777.36 818.337C777.327 824.053 772.991 826.816 768.352 828.431C765.648 828.561 763.309 828.351 760.818 827.195C758.54 826.139 756.335 824.098 755.529 821.659C754.072 817.248 754.071 734.923 754.832 724.784C754.98 722.825 755.36 721.187 756.356 719.469C758.034 716.573 760.598 715.486 763.688 714.639Z"/><path fill="#F5F0E7" d="M721.667 714.57C723.87 714.337 726.093 714.242 728.252 714.833C730.993 715.582 733.798 717.48 735.045 720.118C736.068 722.282 736.067 725.83 736.167 728.243C736.567 737.917 736.947 816.802 735.283 821.318C733.949 824.937 731.418 826.634 728.037 828.19C726.018 828.512 723.866 828.623 721.873 828.101C718.914 827.325 716.352 825.486 714.902 822.761C713.845 820.772 713.781 817.942 713.664 815.711C713.143 805.789 712.861 725.773 714.381 721.367C715.645 717.702 718.33 716.141 721.667 714.57Z"/></svg>