<?xml version="1.0" encoding="utf-8" ?><svg xmlns="http://www.w3.org/2000/svg" xmlns:xlink="http://www.w3.org/1999/xlink" width="1024" height="1024" viewBox="0 0 1024 1024"><path fill="#FFFFFF" d="M466.821 259.915L533.043 259.929C537.546 267.884 541.853 276.908 546.037 285.106L566.597 324.721C608.602 404.732 648.428 485.906 690.783 565.679C695.046 573.836 698.735 579.405 698.614 589.004C698.497 598.254 698.575 607.63 698.558 616.893L590.309 616.972C569.225 616.968 544.206 617.581 523.522 616.63C513.95 596.958 501.019 574.698 490.675 554.668C478.812 575.066 466.622 597.006 454.127 616.924L387.857 616.982L343.002 526.253C340.629 521.467 326.158 494.282 325.814 490.692C325.192 484.198 325.493 460.224 325.506 452.84L325.476 359.695C341.29 387.953 356.781 418.449 371.558 447.275C390.833 484.014 409.692 520.97 428.13 558.136C431.561 551.649 435.781 544.691 439.398 538.203L459.841 500.688C433.322 447.304 406.443 394.1 379.207 341.078L353.154 290.553C348.286 281.075 342.206 269.741 337.962 260.077C358.409 259.353 383.249 259.984 404.014 259.995C414.618 281.061 425.426 302.024 436.435 322.882C477.294 401.847 518.626 480.566 560.428 559.035C578.365 559.045 602.739 559.721 620.105 558.531C603.929 526.283 586.525 494.399 569.806 462.386C534.818 395.233 500.488 327.739 466.821 259.915Z"/><path fill="#FFFFFF" d="M595.322 260.076C616.584 259.503 640.277 259.971 661.718 259.955L686.302 309.47C689.714 316.279 695.863 326.245 698.002 333.185C699.233 337.176 699.04 429.764 698.51 441.325C698.589 444.257 699.339 460.537 698.141 461.955C697.371 460.895 697.483 461.253 697.107 460.064C694.773 456.255 690.606 447.516 688.358 443.216C681.729 430.622 675.204 417.975 668.782 405.274L619.083 306.982C611.469 291.96 603.403 274.627 595.322 260.076Z"/><path fill="#FFFFFF" d="M254.741 673.88C259.394 667.148 273.516 669.748 281.296 669.897C298.985 670.236 319.971 665.517 335.189 676.599C354.734 691.252 354.21 729.649 340.614 747.806C327.621 764.909 308.075 762.225 289.181 761.269C280.996 760.855 270.974 762.436 263.099 761.268C245.627 757.601 261.95 747.548 261.892 747.834C265.159 731.513 262.786 712.109 263.57 695.396C264.349 678.779 261.176 685.955 254.836 677.991C254.918 676.447 254.831 675.43 254.741 673.88Z"/><path fill="#161312" d="M298.477 682.135C317.88 681.728 316.898 700.276 317.692 715.136C318.202 724.668 317.326 741.082 310.351 748.175C305.715 750.727 298.335 752.493 294.218 748.176C292.851 743.59 292.886 693.036 294.474 684.836C294.777 683.271 296.907 682.587 298.477 682.135Z"/><path fill="#FFFFFF" d="M254.024 678.668C252.881 681.171 248.177 682.503 245.925 687.729C239.541 702.538 233.427 717.192 227.747 732.303C224.815 740.103 221.64 748.7 218.177 756.277C217.192 758.433 214.916 761.115 212.796 762.022C201.031 767.052 193.112 720.946 186.455 717.761C185.309 718.064 184.533 718.268 183.838 719.538C177.44 731.229 174.055 744.994 167.989 756.805C166.848 758.93 163.871 762.206 161.306 762.469C154.284 763.188 150.913 750.057 148.808 744.843C143.863 732.592 138.985 720.314 134.175 708.009C131.333 700.756 128.78 692.952 124.936 686.187C123.788 683.006 118.636 682.405 117.043 680.797C113.714 677.024 116.411 673.752 120.058 671.969C127.083 668.534 156.474 666.841 161.357 672.761C162.27 673.851 162.686 675.273 162.505 676.683C162.106 679.95 159.614 681.392 157.18 683.216C159.228 692.551 163.573 700.185 166.972 709.039C167.755 711.078 168.54 712.961 170.862 713.058C174.349 710.847 178.73 697.421 178.191 693.115C177.767 685.975 172.454 683.976 168.184 679.785C163.532 675.155 169.967 669.571 174.511 669.871C184.095 670.504 209.134 666.489 215.203 674.329C216.311 679.68 212.151 679.691 209.032 682.744C207.343 686.059 217.195 711.158 219.56 713.078L220.407 712.953C223.326 709.763 229.896 692.779 230.426 687.697C230.933 683.921 224.322 680.896 223.286 678.819C217.867 667.946 237.211 669.229 242.336 669.346C248.036 669.476 252.162 669.644 253.968 674.43L254.741 673.88C254.831 675.43 254.918 676.447 254.836 677.991L254.024 678.668Z"/><path fill="#FFFFFF" d="M253.968 674.43L254.741 673.88C254.831 675.43 254.918 676.447 254.836 677.991L254.024 678.668C253.963 677.257 253.944 675.843 253.968 674.43Z"/><path fill="#FFFFFF" d="M497.871 669.206C503.832 668.359 523.095 668.177 527.609 672.828C530.518 675.825 528.442 681.157 524.684 682.504C524.087 682.719 523.581 684.599 523.666 685.212C525.093 690.547 532.189 709.774 535.7 712.753C536.469 712.558 537.263 712.293 537.676 711.591C544.677 699.38 549.31 690.169 535.24 680.818C529.326 676.888 534.802 670.175 541.288 669.837C551.32 669.314 561.225 669.602 571.272 669.697C576.215 669.744 581.261 671.776 581.261 677.417C581.21 679.535 575.934 682.107 573.966 683.245C574.723 687.899 582.491 710.795 585.834 712.488L586.991 712.088C590.609 708.371 595.179 693.362 596.515 687.739C597.702 682.741 586.569 680.991 588.32 674.844C590.36 668.836 599.688 669.528 604.494 669.445C633.678 668.944 614.707 680.278 609.669 692.362C600.556 713.474 592.748 736.349 583.799 757.619C583.179 759.093 581.322 760.785 579.813 761.337C569.707 764.742 570.02 754.52 567.135 749.708C564.278 744.942 555.639 719.164 552.207 717.65L551.048 718.109C541.243 728.486 531.22 790.892 516.043 747.92C514.69 744.089 513.152 740.257 511.639 736.478L496.928 699.956C495.089 695.379 492.983 689.607 490.481 685.448C489.096 683.146 482.569 682.407 482.114 678.325C481.202 670.133 492.307 669.766 497.871 669.206Z"/><path fill="#FFFFFF" d="M369.826 668.715C376.952 668.482 390.377 667.909 395.941 672.634C400.197 677.623 395.61 681.823 392.03 684.715C389.676 686.617 389.702 699.493 392.022 701.732C395.731 701.595 406.13 688.039 406.574 683.79C406.75 682.102 402.473 678.821 403.069 675.751C404.387 668.957 418.298 668.681 423.057 668.742C429.868 668.829 443.199 667.52 446.203 674.526C449.805 682.925 434.945 683.065 430.247 684.603C426.277 685.877 413.838 697.244 416.512 701.466C425.915 716.312 437.845 730.035 448.409 744.143C451.246 747.92 455.919 747.785 458.401 753.479C457.715 757.561 456.391 761.017 451.713 761.073C442.408 761.184 431.368 761.654 422.221 760.895C412.554 755.31 405.003 730.224 394.648 730.491C389.661 732.657 391.705 743.553 393.328 747.664C393.873 749.043 398.434 750.278 399.011 752.594C399.398 754.1 399.111 755.7 398.224 756.977C393.175 764.381 370.541 762.47 362.79 761.768C360.217 761.636 351.97 759.226 352.151 755.652C352.641 745.972 361.418 752.132 361.554 739.287C361.675 727.919 361.716 717.118 361.487 705.795C361.365 699.784 362.015 694.101 361.218 688.171C360.72 683.352 357.26 682.784 353.774 680.417C351.167 678.647 351.788 675.185 353.716 673.118C357.405 669.164 364.799 669.079 369.826 668.715Z"/><path fill="#FFFFFF" d="M645.329 692.691C651.93 692.089 658.114 693.699 663.774 696.414C680.989 704.673 673.857 721.576 675.855 736.509C676.622 742.239 681.982 744.367 682.848 746.975C682.572 757.656 666.638 766.304 657.424 760.847C655.866 759.925 652.74 756.526 651.34 755.101C639.321 763.378 628.808 766.405 616.214 756.533C611.383 750.491 609.977 745.127 612.314 737.321C615.039 728.218 625.7 723.909 634.334 722.812C638.36 722.3 643.905 723.128 647.544 721.217C649.437 718.168 648.422 706.79 645.668 703.892C636.064 699.715 634.05 715.691 625.442 717.561C618.227 719.129 613.464 710.949 618.029 705.672C624.573 698.111 635.524 693.779 645.329 692.691Z"/><path fill="#161312" d="M643.959 730.489C650.288 731.657 648.04 734.467 648.503 740.502C648.854 745.08 647.634 747.776 643.033 748.741C634.705 744.347 636.906 734.73 643.959 730.489Z"/><path fill="#FFFFFF" d="M808.299 692.655C826.864 691.874 843.516 703.725 840.904 724.529C840.716 726.023 839.641 729.517 837.939 730.015C830.886 732.079 809.952 728.174 804.633 731.942C804.056 732.939 803.409 733.768 803.831 734.951C807.302 744.702 816.271 746.389 825.269 743.568C829.735 742.168 834.339 738.193 838.003 741.713C839.054 744.656 838.204 747.253 837.013 750.019C818.775 772.885 781.853 764.228 776.801 735.044C773.144 713.917 787.413 695.596 808.299 692.655Z"/><path fill="#161312" d="M808.495 704.538C814.173 704.358 815.899 705.085 817.336 711.007C818.84 717.209 815.666 717.12 811.118 717.868C809.75 718.001 808.374 718.046 807 718.002C798.073 717.803 804.044 707.483 808.495 704.538Z"/><path fill="#FFFFFF" d="M875.193 676.526C886.472 675.789 883.129 685.294 883.479 693.85C888.123 694.168 898.42 692.656 900.924 696.396C901.236 699.711 901.68 703.316 900.098 706.582C897.194 712.577 884.81 703.551 883.642 710.54C882.95 714.674 883.232 720.324 883.242 724.708C883.255 730.006 882.196 737.22 884.984 741.868C888.335 746.667 894.519 741.155 899.137 741.799C908.213 747.701 892.125 758.392 886.838 760.766C880.503 762.859 868.194 763.946 862.709 759.802C847.98 748.672 856.362 726.453 853.188 710.791C849.627 706.228 843.683 710.26 841.077 705.584C840.044 699.17 847.123 695.951 851.718 692.6C859.175 687.162 866.737 680.163 875.193 676.526Z"/><path fill="#FFFFFF" d="M757.781 669.679C760.933 669.299 763.39 668.579 766.038 670.364C767.96 672.897 766.727 685.48 766.573 689.41C765.993 702.585 765.8 715.774 765.993 728.961C766.061 733.537 766.087 738.136 766.397 742.702C766.746 747.827 773.44 751.287 772.834 755.972C771.958 762.751 758.59 762.198 753.508 762.23C748.553 762.262 742.968 762.015 738.058 761.352C722.425 758.467 735.54 748.371 735.826 746.377C737.629 733.803 739.795 702.642 735.694 691.069C733.536 689.222 728.306 685.361 728.364 682.545C728.559 673.095 751.746 670.524 757.781 669.679Z"/><path fill="#FFFFFF" d="M716.369 670.218C719.093 670.052 723.547 670.297 723.321 674.06C722.399 689.418 721.174 704.7 721.467 720.125C721.642 729.284 721.096 738.977 722.726 748.029C725.267 750.525 731.859 756.499 726.59 759.518C719.306 763.694 700.25 762.186 692.219 761.434C681.311 759.297 685.012 753.259 691.081 748.24C693.972 736.723 694.784 706.226 692.213 693.769C690.882 689.673 684.288 688.569 684.147 683.796C683.83 673.029 709.316 670.814 716.369 670.218Z"/></svg>