<?xml version="1.0" encoding="utf-8" ?><svg xmlns="http://www.w3.org/2000/svg" xmlns:xlink="http://www.w3.org/1999/xlink" width="1024" height="1024" viewBox="0 0 1024 1024"><path fill="#010001" d="M0 0L1024 0L1024 1024L0 1024L0 0Z"/><path fill="#F78620" d="M498.817 206.111C501.876 202.896 502.668 202.842 507.255 202.791C521.13 202.639 535.075 202.753 548.953 202.789L622.962 202.857L675.063 202.812C684.443 202.796 694.069 202.618 703.491 202.96C712.743 203.295 713.959 208.202 713.946 216.512C713.883 258.376 713.723 300.327 713.856 342.2C713.748 368.451 714.467 395.141 713.898 421.339C713.565 422.989 713.057 424.453 711.405 425.273C708.188 426.867 632.417 425.864 622.088 425.788C621.609 443.887 622.26 462.146 622.025 480.261C621.987 483.199 622.109 486.297 621.914 489.217C621.944 495.259 622.419 515.504 621.643 520.564C620.091 523.116 619.463 523.82 617.003 525.566C607.942 526.081 598.692 525.745 589.614 525.875C570.038 526.154 550.046 525.631 530.51 526.029L530.528 583.356C530.527 593.311 530.644 603.301 530.368 613.217C530.196 620.286 527.18 623.394 520.147 623.484C510.451 623.61 500.773 623.545 491.089 623.533L429.497 623.503L357.403 623.53C345.308 623.534 333.175 623.647 321.089 623.384C316.417 623.282 313.183 619.339 313.106 614.799C312.899 602.617 312.914 590.433 312.887 578.248L312.932 503.87L312.988 445.064C313 434.919 312.933 424.779 313.158 414.635C313.294 408.502 316.494 406.399 322.371 406.133C331.197 405.735 340.107 405.931 348.939 405.945L402.242 405.933C402.673 391.674 400.618 314.435 403.166 307.078C404.452 305.722 406.425 304.005 408.329 303.859C417.719 303.137 427.944 303.46 437.337 303.481L497.385 303.472C498.022 272.67 496.928 241.629 497.592 210.809C497.63 209.059 498.086 207.678 498.817 206.111Z"/><defs><linearGradient id="gradient_0" gradientUnits="userSpaceOnUse" x1="316.50278" y1="620.49689" x2="526.25311" y2="408.25015"><stop offset="0" stop-color="#EA4A14"/><stop offset="1" stop-color="#FF711D"/></linearGradient></defs><path fill="url(#gradient_0)" d="M502.454 405.665C506.286 405.244 510.138 405.277 513.972 405.218C522.127 405.093 526.177 404.917 530.678 412.139C530.646 417.199 530.868 425.985 530.494 430.742C529.676 447.143 530.524 466.21 530.389 482.878C530.286 495.514 529.552 513.928 530.51 526.029L530.528 583.356C530.527 593.311 530.644 603.301 530.368 613.217C530.196 620.286 527.18 623.394 520.147 623.484C510.451 623.61 500.773 623.545 491.089 623.533L429.497 623.503L357.403 623.53C345.308 623.534 333.175 623.647 321.089 623.384C316.417 623.282 313.183 619.339 313.106 614.799C312.899 602.617 312.914 590.433 312.887 578.248L312.932 503.87L312.988 445.064C313 434.919 312.933 424.779 313.158 414.635C313.294 408.502 316.494 406.399 322.371 406.133C331.197 405.735 340.107 405.931 348.939 405.945L402.242 405.933L469.767 406.033C477.074 406.054 496.126 406.547 502.454 405.665Z"/><path fill="#AC3F07" d="M498.817 206.111C501.876 202.896 502.668 202.842 507.255 202.791C521.13 202.639 535.075 202.753 548.953 202.789L622.962 202.857L675.063 202.812C684.443 202.796 694.069 202.618 703.491 202.96C712.743 203.295 713.959 208.202 713.946 216.512C713.883 258.376 713.723 300.327 713.856 342.2C713.748 368.451 714.467 395.141 713.898 421.339C713.565 422.989 713.057 424.453 711.405 425.273C708.188 426.867 632.417 425.864 622.088 425.788C621.609 443.887 622.26 462.146 622.025 480.261C621.987 483.199 622.109 486.297 621.914 489.217C620.989 479.201 621.51 458.97 621.503 448.097C621.747 416.608 621.793 385.117 621.639 353.628C621.624 340.003 622.492 325.428 621.584 311.949C621.468 310.234 621.319 306.959 620.077 305.732C615.939 301.644 590.987 303.538 584.117 303.38C555.74 303.938 525.866 303.559 497.385 303.472C498.022 272.67 496.928 241.629 497.592 210.809C497.63 209.059 498.086 207.678 498.817 206.111Z"/><path fill="#9C3503" d="M498.817 206.111C508.458 214.264 524.05 230.871 533.401 240.083C554.826 260.818 576.054 281.757 597.08 302.897C595.001 302.894 585.28 302.612 584.117 303.38C555.74 303.938 525.866 303.559 497.385 303.472C498.022 272.67 496.928 241.629 497.592 210.809C497.63 209.059 498.086 207.678 498.817 206.111Z"/><path fill="#9C3503" d="M622.088 425.788C622.589 416.533 622.182 403.12 622.174 393.587L622.108 331.455C630.922 341.989 647.56 356.895 657.805 367.107L689.561 398.49C692.743 401.664 711.485 420.82 713.898 421.339C713.565 422.989 713.057 424.453 711.405 425.273C708.188 426.867 632.417 425.864 622.088 425.788Z"/><path fill="#CB6B15" d="M403.166 307.078C407.661 311.247 411.93 316.023 416.281 320.412L443.705 347.894L502.454 405.665C496.126 406.547 477.074 406.054 469.767 406.033L402.242 405.933C402.673 391.674 400.618 314.435 403.166 307.078Z"/><path fill="#CB6B15" d="M530.494 430.742L583.191 482.2C595.857 494.666 609.431 507.761 621.643 520.564C620.091 523.116 619.463 523.82 617.003 525.566C607.942 526.081 598.692 525.745 589.614 525.875C570.038 526.154 550.046 525.631 530.51 526.029C529.552 513.928 530.286 495.514 530.389 482.878C530.524 466.21 529.676 447.143 530.494 430.742Z"/><path fill="#E6D2C7" d="M256.707 701.119C268.55 700.722 281.517 701.324 293.196 701.354C325.646 701.438 345.712 723.285 344.027 755.478C343.151 772.221 339.839 783.545 327.684 795.009C313.567 806.146 299.545 806.815 282.234 806.909C275.498 806.945 268.644 807.272 261.918 807.004C259.341 806.901 254.423 806.148 252.887 803.71C251.822 802.021 251.651 798.004 251.54 796.002C250.982 785.872 250.933 708.89 252.241 705.421C253.112 703.11 254.507 702.075 256.707 701.119Z"/><path fill="#010001" d="M271.312 716.545C284.731 716.808 302.483 714.171 313.015 723.804C327.392 736.952 327.079 768.751 314.747 783.02C301.228 794.011 288.149 791.601 271.235 791.317C271.049 766.393 271.074 741.468 271.312 716.545Z"/><path fill="#E6D2C7" d="M115.472 700.109C120.079 699.45 126.382 699.995 128.352 704.543C133.32 716.012 137.926 779.76 142.092 785.244L142.984 785.192C146.338 782.476 154.703 725.205 156.509 717.021C158.219 709.273 158.084 702.211 168.806 700.681C191.154 697.494 190.369 711.469 193.365 727.648C195.634 739.586 197.808 751.542 199.887 763.514C200.665 768.089 201.889 783.137 205.314 785.498C209.041 782.413 215.104 717.064 218.985 705.521C219.682 703.448 221.391 701.718 223.385 700.845C226.003 699.701 229.724 699.653 232.373 700.725C235.345 701.927 236.494 704.266 237.79 707.025C237.61 713.21 235.811 720.873 234.594 727.097L225.938 773.25C224.407 781.411 222.614 789.888 220.979 797.751C218.063 811.768 193.605 810.432 190.352 801.076C187.379 792.525 186.126 776.269 183.888 766.52C180.518 751.834 178.074 736.536 174.998 721.802C174.858 721.088 174.334 721.12 173.692 720.897C172.489 721.568 171.368 722.812 171.143 724.211C167.548 746.511 163.401 768.684 159.271 790.891C158.296 796.134 157.139 802.502 152.23 805.487C148.008 809.815 129.117 808.757 127.309 801.503C120.108 772.607 115.541 741.127 109.385 711.739C108.036 705.3 110.486 702.674 115.472 700.109Z"/><path fill="#E6D2C7" d="M485.479 700.061C488.65 699.894 492.061 699.722 494.881 701.509C496.637 702.618 497.946 704.312 498.575 706.292C500.023 710.922 501.467 723.4 502.286 729.001C504.819 746.322 507.173 763.761 509.993 781.044C510.279 782.794 510.768 785.021 512.28 786.061C516.63 783.249 524.158 711.706 529.298 705.451C532.062 702.087 536.51 700.825 540.69 700.481C546.354 700.015 553.533 701.17 557.364 705.813C563.354 713.075 570.016 782.13 573.994 785.505C576.808 784.869 578.096 770.525 578.607 767.179L584.281 729.272C585.316 722.15 586.138 715.872 587.726 708.259C589.74 698.598 599.656 697.218 605.256 703.466C608.726 707.339 604.796 722.152 603.701 728.377C601.196 741.129 593.492 793.097 588.691 801.134C586.691 804.482 583.268 806.893 579.5 807.817C574.687 808.996 568.453 808.285 564.231 805.597C562.222 804.318 560.656 802.633 559.742 800.424C557.07 793.962 556.585 785.381 555.382 778.488C553.27 766.39 550.638 754.382 548.325 742.321C547.117 736.018 546.529 729.287 544.802 723.117C544.452 721.863 544.188 721.519 543.062 720.903L541.908 721.429C538.138 727.04 537.468 749.306 534.863 756.486C529.723 770.648 533.86 807.119 513.707 807.858C497.121 808.467 495.409 800.249 493.188 787.046C488.919 761.665 482.89 736.767 478.684 711.398C477.669 705.276 480.085 702.329 485.479 700.061Z"/><path fill="#E6D2C7" d="M422.417 699.061C425.97 698.893 429.534 698.492 432.613 700.736C435.854 703.097 435.032 708.813 432.85 711.576C424.804 721.767 415.592 731.392 406.801 740.999C416.63 758.836 429.545 775.781 438.795 793.986C442.595 801.465 437.186 809.721 428.48 808.125C426.391 807.755 424.482 806.708 423.047 805.146C421.016 802.925 419.694 800.401 418.059 797.931C409.094 784.387 401.721 768.571 392.717 755.213L392.356 754.685C388.006 759.062 382.747 765.257 378.446 769.954L378.463 778.625C378.397 784.588 379.4 794.799 378.29 800.144C376.03 811.034 364.086 810.665 358.581 801.494C357.68 785.521 358.429 762.229 358.433 745.781L358.398 721.871C358.385 716.348 357.363 706.857 360.791 702.802C364.853 697.999 376.765 699.502 377.964 706.401C378.862 711.573 378.48 718.084 378.484 723.246L378.553 749.092C387.438 740.537 414.235 702.804 422.417 699.061Z"/><path fill="#E6D2C7" d="M640.753 729.179C656.447 726.883 680.569 732.794 682.154 751.259C682.808 758.88 683.121 770.468 682.635 778.243C682.085 787.028 687.22 810.785 672.891 808.312C663.307 806.706 668.409 795.914 665.903 792.378C662.93 794.834 658.59 801.464 655.219 803.615C647.265 808.691 636.092 809.926 627.013 808.012C619.483 806.425 614.828 802.94 610.837 796.8C599.904 773.9 620.465 765.58 639.256 764.762C649.693 764.307 667.45 765.381 662.776 748.893C660.442 740.66 643.395 739.195 636.607 742.26C629.906 744.035 631.14 750.945 628.833 754.034C621.696 763.587 603.777 753.762 615.004 741.3C622.336 733.161 629.388 730.334 640.753 729.179Z"/><path fill="#010001" d="M663.471 768.049C664.086 769.299 663.38 775.664 663.3 777.497C662.573 794.094 644.524 801.475 630.65 793.997C629.048 792.398 627.162 790.569 626.65 788.223C623.659 774.51 640.665 775.053 649.502 773.597C656.69 772.412 657.791 772.026 663.471 768.049Z"/><path fill="#E6D2C7" d="M811.432 729.183C833.753 726.819 852.7 739.669 855.778 762.759C856.518 768.308 854.588 772.508 848.465 772.844C842.417 773.175 836.243 772.965 830.132 772.901L795.931 772.627C796.03 784.423 801.777 794.563 814.002 796.969C830.05 800.129 832.437 786.24 841.836 779.776C854.399 775.142 859.196 783.437 851.693 793.623C845.924 801.593 837.207 806.926 827.483 808.432C804.388 811.924 780.892 800.882 777.869 775.864C774.821 750.638 785.282 732.523 811.432 729.183Z"/><path fill="#010001" d="M813.641 740.625C830.681 739.489 834.023 748.637 835.527 762.938C830.101 762.998 824.676 763.014 819.25 762.986C811.638 762.942 804.026 762.944 796.414 762.993C796.44 749.637 799.922 743.11 813.641 740.625Z"/><path fill="#E6D2C7" d="M880.984 702.12C896.392 701.34 892.326 719.643 892.188 730.623C900.014 730.521 909.274 730.044 916.926 730.746C926.362 731.612 926.058 745.426 914.773 745.179C907.571 745.021 899.615 745.003 892.401 744.973C892.03 753.506 890.853 785.116 893.282 791.268C894.129 793.415 895.488 795.037 897.694 795.86C900.286 796.828 904.337 796.857 906.872 795.672C912.972 792.822 908.719 784.144 911.046 779.415C911.774 777.936 912.683 777.034 914.222 776.427C916.41 775.564 918.557 775.616 920.659 776.695C923.013 777.904 924.009 779.424 924.861 781.866L924.907 782.573C925.903 800.047 917.298 808.652 899.982 809.096C889.973 809.71 876.759 804.764 875.173 793.382C873.076 778.33 874.01 760.128 874.076 744.813C869.876 745.135 862.562 746.177 859.136 743.423C856.101 740.974 855.904 734.881 858.804 732.295C861.955 729.485 869.967 730.437 874.064 730.554C874.086 725.517 873.831 720.411 873.807 715.374C873.775 708.848 874.045 704.142 880.984 702.12Z"/><path fill="#E6D2C7" d="M746.734 700.08C749.277 699.906 752.147 699.94 754.486 701.058C756.231 701.892 757.384 703.421 757.933 705.254C759.444 710.304 758.695 716.878 758.681 722.172C758.649 734.293 756.939 780.436 760.272 788.751C763.084 795.765 769.634 792.851 774.855 795.639C776.024 796.263 776.978 797.071 777.313 798.41C777.811 800.403 776.893 803.267 775.806 804.937C774.343 807.186 771.83 807.479 769.388 807.944C763.362 808.069 756.676 807.849 751.105 805.315C746.116 803.101 742.291 798.889 740.565 793.711C738.917 788.913 739.084 782.253 739.111 777.148C739.234 754.585 738.887 732.014 739.067 709.454C739.116 703.32 741.181 701.632 746.734 700.08Z"/><path fill="#E6D2C7" d="M704.017 700.079C719.04 699.481 716.077 711.902 716.045 723.137L715.944 761.315C715.924 770.544 714.819 781.125 718.124 789.839C720.956 797.301 732.539 791.825 734.362 798.609C735.769 803.842 732.831 806.634 728.004 808.017C693.517 809.738 697.122 789.503 697.169 763.215C697.2 745.539 696.878 727.551 697.061 709.849C697.116 704.512 698.841 701.713 704.017 700.079Z"/></svg>