<?xml version="1.0" encoding="utf-8" ?><svg xmlns="http://www.w3.org/2000/svg" xmlns:xlink="http://www.w3.org/1999/xlink" width="1024" height="1024" viewBox="0 0 1024 1024"><path fill="#171718" d="M0 0L1024 0L1024 1024L0 1024L0 0Z"/><path fill="#EBE5DB" d="M271.109 550.509C294.685 550.471 328.475 547.101 345.912 564.868C366.129 585.467 363.26 618.95 343.813 638.837C335.598 646.079 324.178 651.641 313.275 651.774C305.517 651.87 276.075 653.767 270.451 651.153C269.113 648.756 269.51 638.346 269.51 634.927L269.51 609.827L269.525 573.26C269.529 567.041 269.49 560.719 269.62 554.499C269.668 552.183 269.903 552.086 271.109 550.509Z"/><path fill="#171718" d="M286.423 564.989C300.282 564.809 319.596 563.38 330.314 573.366C344.75 586.816 344.031 613.658 331.336 627.961C319.028 639.845 302.53 637.957 286.494 637.903C286.603 613.598 286.579 589.293 286.423 564.989Z"/><path fill="#EBE5DB" d="M541.474 549.598C545.928 549.192 550.486 549.48 554.685 551.124C557.389 552.182 560.404 554.068 561.949 556.608C565.134 561.846 571.833 610.003 573.561 621.003C574.305 625.737 574.254 631.539 576.17 635.917C577.782 636.953 576.89 636.619 579.03 636.658C581.194 635.286 583.478 615.659 584.134 611.369C586.164 597.982 588.263 584.605 590.431 571.239C591.227 566.069 592.056 556.72 594.132 551.865C595.09 549.625 608.436 549.869 610.644 551.343C611.05 552.687 610.957 554.089 610.7 555.463C608.426 567.611 606.401 579.773 604.348 591.95C601.667 607.848 599.119 623.782 596.333 639.653C595.893 641.481 595.08 645.401 594.075 646.875C588.614 654.892 573.506 655.458 565.893 650.359C563.95 649.058 561.566 646.265 561.071 644.009C559.63 637.446 558.952 630.677 557.82 624.015C554.687 604.769 551.431 585.543 548.051 566.338C546.69 565.52 546.49 565.621 544.929 565.481C543.788 565.998 543.486 566.123 542.896 567.324C541.032 571.118 540.869 578.242 540.228 582.512C538.696 592.721 532.258 642.228 529.422 646.415C526.765 650.337 522.328 652.544 517.746 653.304C512.045 654.249 505.663 653.495 500.941 649.96C499.041 648.537 497.299 646.689 496.541 644.398C494.44 638.049 492.503 622.643 491.108 615.135L483.972 576.195C482.666 569.005 481.233 561.667 480.226 554.437C479.94 552.386 480.153 552.277 481.204 550.959C483.569 549.867 485.389 550.426 487.613 550.258C499.221 549.382 497.885 553.245 499.604 562.923C500.335 567.039 501.04 571.98 501.723 576.292L508.61 618.342C509.305 622.752 510.543 632.875 512.109 636.553C513.763 637.427 512.895 637.273 514.82 636.927C516.718 635.254 518.521 618.203 519.081 614.512L524.575 580.288C524.955 577.832 525.27 575.284 525.69 572.838C527.974 559.522 526.35 553.15 541.474 549.598Z"/><path fill="#EBE5DB" d="M189.691 549.637C195.789 548.99 207.754 552.048 209.213 557.868C214.142 577.529 216.239 599.741 219.751 619.845C220.523 624.262 221.149 633.785 222.643 636.841C224.156 637.731 223.341 637.496 225.21 637.422C226.169 636.736 226.977 636.11 227.114 634.776C229.297 613.992 233.351 593.472 236.555 572.829C237.456 567.026 238.649 556.736 240.754 551.5C243.524 549.614 253.184 550.389 256.789 550.612C256.702 559.483 243.464 639.694 240.844 645.406C239.414 648.525 235.843 650.989 232.727 652.166C227.692 654.069 219.864 654.238 214.922 651.749C212.389 650.474 209.783 648.361 208.502 645.776C206.262 641.253 206.012 634.802 205.167 629.813C202.833 616.111 200.572 602.397 198.382 588.672C197.44 582.855 196.093 571.151 194.127 565.89C192.123 565.648 190.038 565.315 189.316 567.765C188.313 571.169 187.915 574.909 187.461 578.429C184.65 600.242 181.249 622.007 177.579 643.68C176.946 647.079 173.054 650.006 170.22 651.61C162.473 655.995 145.945 653.648 143.521 643.744C142.036 637.675 140.941 631.094 139.805 625.018C137.419 612.394 135.138 599.75 132.964 587.087C131.539 578.928 127.343 559.127 127.159 551.94L128.086 550.987C131.175 549.949 138.275 550.281 141.753 550.588C142.759 550.677 143.956 551.665 144.405 552.788C145.796 556.265 146.631 565.265 147.363 568.288C149.054 575.271 157.446 634.217 159.068 636.855C160.753 637.422 159.896 637.359 161.734 636.894C163.538 635.258 164.72 622.097 165.246 618.73L171.365 579.353C172.355 572.837 173.587 562.983 175.374 556.921C179.798 552.081 183.505 550.647 189.691 549.637Z"/><path fill="#EBE5DB" d="M375.375 550.217C378.592 550.145 384.999 549.307 387.883 550.836C392.6 553.339 387.69 592.981 389.987 599.116C390.544 599.302 391.147 599.69 391.663 599.258C408.397 585.243 422.383 570.256 431.981 550.51C435.05 550.397 444.667 549.388 446.768 551.549C451.225 561.869 423.805 589.955 415.498 597.189C427.334 604.815 434.511 611.581 440.577 624.181C441.987 627.567 443.2 631.032 444.212 634.558C445.305 638.257 448.326 648.015 446.445 651.481C443.316 653.38 435.155 652.533 431.364 652.106C426.259 637.907 422.352 615.228 405.099 608.818C402.185 607.736 392.446 618.245 389.558 620.807C389.595 625.944 391.037 649.066 388.421 651.683C385.639 652.955 374.902 653.305 372.679 650.609C372.121 643.722 372.385 634.828 372.396 627.79L372.391 592.812L372.385 567.327C372.385 563.437 372.18 555.757 372.739 552.128C374.084 550.43 373.268 551.082 375.375 550.217Z"/><path fill="#EBE5DB" d="M800.555 575.684C807.13 574.764 815.388 575.677 821.516 578.297C829.932 581.93 836.561 588.755 839.947 597.273C841.971 602.31 843.879 611.501 842.245 616.751C840.947 620.925 830.937 619.133 827.755 619.531C818.95 620.629 791.319 617.285 784.279 619.881C783.601 620.812 783.309 621.515 783.668 622.71C786.479 632.052 791.443 638.958 801.756 640.28C814.417 641.905 822.035 638.775 828.728 628.202C831.28 627.262 836.403 628.399 838.755 629.597C843.11 632.166 839.111 637.137 837.206 639.791C822.436 660.506 784.992 658.003 772.337 636.337C764.542 622.991 764.62 601.824 774.408 589.389C781.19 580.772 789.983 577.073 800.555 575.684Z"/><path fill="#171718" d="M801.605 588.613C814.13 587.776 823.652 591.974 826.326 605.496C827.155 609.694 823.143 608.338 820.017 608.436C816.592 608.543 812.789 608.431 809.264 608.432C801.06 608.361 792.344 608.759 784.272 608.135C781.88 607.95 786.838 598.395 787.426 597.506C791.104 591.946 795.215 589.869 801.605 588.613Z"/><path fill="#EBE5DB" d="M639.345 575.661C641.088 575.391 646.676 575.324 648.467 575.5C677.991 578.406 675.64 603.418 675.361 625.606C675.326 628.415 675.014 633.653 675.966 636.076C676.895 639.763 682.684 637.766 684.035 640.559C685.853 644.312 683.705 651.138 680.456 653.322C671.545 655.104 664.266 650.009 662.086 641.296L661.914 640.586C653.778 649.732 647.154 653.977 634.402 653.761C626.485 653.626 621.215 652.475 615.386 646.611C612.441 642.427 610.629 638.228 610.657 633.027C610.787 609.001 642.023 610.288 658.411 605.719L659.198 605.496C658.431 593.134 653.413 584.33 638.654 588.427C632.271 590.2 630.165 597.44 627.843 603.119C617.375 602.719 608.892 599.506 617.391 588.345C623.381 580.478 629.608 577.107 639.345 575.661Z"/><path fill="#171718" d="M655.764 617.69C656.035 617.647 658.789 617.287 658.867 617.805C661.341 634.085 648.987 645.473 632.76 640.526C630.255 638.971 628.715 637.745 627.914 634.761C627.139 631.86 627.621 628.767 629.242 626.24C631.813 622.196 637.592 620.746 641.993 619.891C643.489 619.572 644.993 619.292 646.503 619.051C649.695 618.562 652.556 618.101 655.764 617.69Z"/><path fill="#FC7429" d="M511.039 337.929C516.42 339.561 527.055 345.616 532.249 348.41C540.742 352.996 549.32 357.419 557.981 361.679C542.425 369.726 526.918 377.865 511.46 386.097C508.23 384.977 497.458 379.111 494.122 377.362C484.209 372.089 474.206 366.986 464.117 362.058C476.789 354.711 497.578 344.584 511.039 337.929Z"/><path fill="#98370A" d="M561.117 411.038C569.936 415.595 578.681 420.297 587.346 425.141C593.824 428.204 600.215 431.447 606.51 434.868C601.341 438.122 594.401 441.475 588.867 444.334C579.142 449.303 569.475 454.385 559.869 459.579C544.637 450.804 528.112 443.713 513.758 435.478L519.935 432.584C530.053 426.22 549.878 416.936 561.117 411.038Z"/><path fill="#6D1F00" d="M561.117 411.038C569.936 415.595 578.681 420.297 587.346 425.141C567.576 428.986 547.49 429.612 527.572 432.255C524.503 432.662 523.087 433.067 519.935 432.584C530.053 426.22 549.878 416.936 561.117 411.038Z"/><path fill="#F1992B" d="M460.827 411.454C463.708 411.879 502.52 432.569 507.953 435.311C494.282 442.714 476.615 452.496 462.678 458.848C459.852 458.531 420.45 437.336 415.944 434.683C430.968 427.106 445.858 419.174 460.827 411.454Z"/><path fill="#EBE5DB" d="M871.966 551.503L873.819 551.74C878.649 555.483 874.518 568.191 876.412 575.802C880.321 581.16 889.972 575.149 895.311 578.023C898.313 579.639 898.402 586.61 896.551 588.948C894.194 589.813 879.508 589.528 876.017 589.531C875.897 602.569 875.485 616.222 876.098 629.248C876.292 631.933 877.342 633.485 878.441 635.682C881.626 642.051 894.567 635.247 896.44 640.213C898.305 645.156 898.284 649.846 893.36 652.371C886.031 654.707 874.728 654.539 868.815 649.228C858.721 640.163 860.41 625.31 860.3 613.12C860.229 605.196 860.436 597.376 859.857 589.489C857.011 589.32 846.167 590.327 845.634 587.733C842.565 572.795 853.225 578.857 858.722 577.522C865.833 575.796 859.698 561.611 862.138 557.328C864.425 553.313 868.07 552.811 871.966 551.503Z"/><path fill="#98370A" d="M510.745 389.679C527.084 381.674 543.125 372.702 559.565 364.651C559.546 378.149 559.067 395.218 559.719 408.428C552.372 412.109 514.905 432.818 510.471 433.489C510.785 421.164 509.648 401.261 510.745 389.679Z"/><path fill="#6D1F00" d="M559.521 462.795C564.684 460.759 575.776 454.499 581.087 451.688C589.27 447.358 600.538 442.066 608.037 437.241C608.443 451.81 607.98 466.688 608.089 481.296C594.381 489.217 580.17 496.203 566.104 503.453C564.128 504.471 561.868 505.403 560.094 506.716L560.06 506.364C559.036 496.741 559.881 485.63 559.809 475.937C559.782 472.401 560.142 466.075 559.521 462.795Z"/><path fill="#F1992B" d="M414.12 437.532C430.062 445.584 446.23 454.39 462.047 462.766C461.966 471.513 461.936 480.26 461.954 489.007C461.953 492.259 461.79 500.157 462.187 503.16C462.037 504.429 462.061 505.228 461.585 506.39L457.046 504.222C442.857 497.226 428.344 489.332 414.384 481.867L414.12 437.532Z"/><path fill="#FC7429" d="M462.599 364.621C477.6 371.424 495.561 381.892 510.745 389.679C509.648 401.261 510.785 421.164 510.471 433.489C495.969 425.167 477.572 416.244 462.511 408.467L462.599 364.621Z"/><path fill="#98370A" d="M512.433 438.234C526.705 446.123 544.892 455.347 559.521 462.795C560.142 466.075 559.782 472.401 559.809 475.937C559.881 485.63 559.036 496.741 560.06 506.364L560.094 506.716C556.075 505.849 518.77 485.418 512.098 481.829C512.046 468.357 511.649 451.451 512.433 438.234Z"/><path fill="#AF6114" d="M462.047 462.766C477.991 454.738 493.619 446.286 509.511 438.207L509.31 481.807C504.189 484.827 464.705 506.314 461.585 506.39C462.061 505.228 462.037 504.429 462.187 503.16C461.79 500.157 461.953 492.259 461.954 489.007C461.936 480.26 461.966 471.513 462.047 462.766Z"/><path fill="#EBE5DB" d="M697.482 543.72C699.15 543.663 710.218 542.879 710.533 545.081C711.339 550.697 711.032 557.152 711.019 562.891L710.913 608.269C710.909 616.579 710.738 625.076 711.388 633.366C711.48 634.537 711.984 636.311 712.732 637.231C714.939 639.948 719.101 637.99 722.052 638.551C727.054 639.496 726.41 646.553 725.436 650.175C725.061 651.569 723.578 652.145 722.39 652.701C714.924 654.66 703.659 654.187 699.098 647.052C693.4 638.142 694.483 625.435 694.466 615.213L694.439 583.279L694.444 560.12C694.447 556.123 694.271 548.907 694.959 545.228C696.099 543.807 695.405 544.428 697.482 543.72Z"/><path fill="#EBE5DB" d="M735 543.67C738.467 543.605 745.134 543.001 747.773 544.824C751.346 551.33 747.513 613.921 748.946 625.862C750.389 637.882 748.328 639.932 763.289 638.275C763.732 643.875 765.47 649.367 760.215 652.631C752.998 655.013 743.279 653.878 738.189 647.801C732.238 640.77 732.584 630.127 732.591 621.384C732.61 596.291 732.467 571.138 732.698 546.046C732.71 544.774 734.121 544.203 735 543.67Z"/></svg>