<?xml version="1.0" encoding="utf-8" ?><svg xmlns="http://www.w3.org/2000/svg" xmlns:xlink="http://www.w3.org/1999/xlink" width="1024" height="1024" viewBox="0 0 1024 1024"><path fill="#110707" d="M0 0L1024 0L1024 1024L0 1024L0 0Z"/><path fill="#F97322" d="M393.828 254.211C417.725 252.356 435.707 267.743 455.271 279.249C483.158 295.484 510.931 311.914 538.589 328.536L578.633 352.215C585.123 356.049 594.613 360.986 600.05 365.457C612.38 375.597 610.833 395.648 598.559 405.161C593.119 409.378 587.892 412.225 582.228 415.565L559.451 429.028C546.499 436.722 533.729 444.709 520.732 452.337C503.451 462.479 489.457 449.957 474.796 441.253L425.403 411.631C413.537 404.528 401.982 401.735 388.292 405.281C385.362 406.02 382.522 407.076 379.82 408.429C369.287 413.762 359.23 420.661 349.07 426.699C338.567 432.941 326.156 439.027 316.708 446.627C312.436 450.063 308.73 454.693 305.965 459.41C303.325 463.912 301.928 469.517 301.341 474.669C300.233 484.398 300.197 550.366 302.247 557.648C304.205 564.599 308.317 571.315 313.525 576.291C320.923 583.358 331.907 588.294 340.704 593.562C352.203 600.45 363.537 607.742 375.211 614.324C403.644 630.357 419.966 617.02 444.406 602.1L482.661 579.241C511.342 562.069 509.814 564.018 538.218 581.014L581.435 606.938C587.297 610.276 593.988 613.757 599.34 617.737C615.76 629.947 612.689 651.244 596.117 661.398C582.232 669.905 568.531 678.089 554.678 686.33L482.652 728.971L445.217 751.306C426.881 762.385 413.933 772.306 391.666 770.422C375.841 769.083 367.564 761.792 354.425 754.213C325.876 737.745 297.749 720.49 269.562 703.48L217.185 672.113C208.094 666.641 197.507 660.696 189.274 654.415C179.135 646.68 171.794 633.662 171.029 620.83C170.181 606.594 170.568 590.599 170.597 576.082L170.698 495.354L170.574 434.166C170.547 422.621 170.108 410.273 171.337 398.813C172.009 392.552 176.109 384.081 179.699 378.988C183.581 373.481 189.741 368.151 195.432 364.532C209.328 355.694 223.74 347.598 237.942 339.244L303.075 300.627C316.8 292.612 330.474 284.511 344.096 276.322C359.978 266.79 374.918 255.633 393.828 254.211Z"/><path fill="#F97322" d="M654.98 261.703C674.8 272.803 695.659 285.741 715.21 297.426L772.966 331.226C784.512 338.042 796.206 345.42 807.454 351.929C824.13 361.58 846.784 372.23 851.21 393.256C854.271 407.801 852.978 431.817 852.967 447.188L852.935 534.269L853.003 589.212C853.023 606.758 855.063 625.853 845.657 641.374C836.703 656.15 818.556 665.143 803.995 673.843L761.184 699.242L655.948 761.974C655.554 717.652 655.441 673.329 655.609 629.006C655.089 626.586 654.975 625.354 654.605 622.957C654.468 622.126 654.336 621.293 654.208 620.46C650.822 609.117 644.753 598.943 634.861 592.311C623.008 584.365 609.674 577.203 597.375 569.94C564.508 550.461 531.485 531.247 498.309 512.3C531.368 491.891 567.21 471.667 600.825 452.152C607.878 448.06 614.88 443.881 621.831 439.617C639.417 428.818 648.32 421.68 653.779 401.113C653.98 399.753 654.151 398.815 654.468 397.477C654.526 396.317 654.543 395.883 654.746 394.775C655.278 390.44 655.079 383.165 655.062 378.673L654.981 351.95L654.98 261.703Z"/><path fill="#110707" d="M654.746 394.775C655.326 395.12 655.433 395.197 655.96 395.621C663.059 400.534 671.929 405.551 679.454 409.986L715.203 430.983L803.926 483.705L834.987 502.09C839.619 504.854 847.321 509.223 851.443 512.224C801.302 543.988 748.306 573.062 697.714 604.139C684.679 612.146 668.872 620.282 656.502 628.345C656.045 628.747 656.114 628.703 655.609 629.006C655.089 626.586 654.975 625.354 654.605 622.957C654.468 622.126 654.336 621.293 654.208 620.46C650.822 609.117 644.753 598.943 634.861 592.311C623.008 584.365 609.674 577.203 597.375 569.94C564.508 550.461 531.485 531.247 498.309 512.3C531.368 491.891 567.21 471.667 600.825 452.152C607.878 448.06 614.88 443.881 621.831 439.617C639.417 428.818 648.32 421.68 653.779 401.113C653.98 399.753 654.151 398.815 654.468 397.477C654.526 396.317 654.543 395.883 654.746 394.775Z"/><path fill="#F97322" d="M653.779 401.113C654.544 402.592 654.448 403.257 654.699 404.939C650.568 440.292 632.452 445.663 605.723 462.354C578.653 479.257 549.58 494.78 522.791 511.887C531.358 517.594 541.65 523.199 550.599 528.488L603.054 559.488C612.876 565.272 622.649 570.998 632.217 577.225C645.019 585.555 651.2 596.623 654.205 611.527C654.684 613.799 655.047 616.093 655.294 618.401L654.208 620.46C650.822 609.117 644.753 598.943 634.861 592.311C623.008 584.365 609.674 577.203 597.375 569.94C564.508 550.461 531.485 531.247 498.309 512.3C531.368 491.891 567.21 471.667 600.825 452.152C607.878 448.06 614.88 443.881 621.831 439.617C639.417 428.818 648.32 421.68 653.779 401.113Z"/><path fill="#6A3B26" d="M654.605 622.957L655.628 622.984C656.005 624.951 655.704 626.711 656.502 628.345C656.045 628.747 656.114 628.703 655.609 629.006C655.089 626.586 654.975 625.354 654.605 622.957Z"/><path fill="#BF6A30" d="M654.468 397.477L655.119 398.143C654.997 400.472 654.97 402.613 654.699 404.939C654.448 403.257 654.544 402.592 653.779 401.113C653.98 399.753 654.151 398.815 654.468 397.477Z"/><path fill="#BF6A30" d="M655.294 618.401C655.555 619.977 655.511 621.387 655.628 622.984L654.605 622.957C654.468 622.126 654.336 621.293 654.208 620.46L655.294 618.401Z"/><path fill="#6A3B26" d="M654.746 394.775C655.326 395.12 655.433 395.197 655.96 395.621C655.448 396.803 655.422 396.917 655.119 398.143L654.468 397.477C654.526 396.317 654.543 395.883 654.746 394.775Z"/></svg>