<?xml version="1.0" encoding="utf-8" ?><svg xmlns="http://www.w3.org/2000/svg" xmlns:xlink="http://www.w3.org/1999/xlink" width="1024" height="1024" viewBox="0 0 1024 1024"><path fill="#2B0107" d="M0 0L1024 0L1024 1024L0 1024L0 0Z"/><path fill="#FB4A1C" d="M378.953 123.141C391.134 130.376 403.855 138.822 415.86 146.488L473.374 183.17L633.498 284.854C625.309 290.582 616.102 296.184 607.64 301.637C592.013 311.736 576.332 321.75 560.597 331.679C546.452 340.58 527.721 353.387 513.653 361.1C510.684 358.783 504.633 355.353 501.148 353.188L479.424 339.531L417.74 300.641C405.488 292.854 391.859 284.426 380.144 276.029C375.522 279.5 368.247 283.89 363.268 287.089L324.576 311.501C296.773 329.201 266.156 349.85 238.022 366.223L238.163 657.862C251.167 667.005 269.837 678.063 283.688 686.986C315.636 707.627 347.748 728.013 380.021 748.142C390.246 742.395 402.36 734.334 412.414 727.968L482.258 683.663C492.692 677.058 504.093 669.271 514.592 663.205L544.95 682.437C555.614 689.207 566.119 696.246 576.798 702.976C595.615 714.576 614.231 726.499 632.637 738.741C576.236 775.304 519.587 811.482 462.692 847.272C443.84 859.515 424.906 871.632 405.892 883.623C397.542 888.928 387.229 896.048 378.742 900.622C374.371 897.285 361.603 889.871 356.156 886.458C340.421 876.641 324.747 866.727 309.135 856.716C245.61 816.966 182.29 776.891 119.176 736.492C118.931 724.889 119.327 712.008 119.381 700.274L119.419 629.173L119.496 288.178C177.566 250.751 235.844 213.647 294.326 176.867L354.865 138.376C362.79 133.371 370.918 127.87 378.953 123.141Z"/><path fill="#FC9838" d="M665.053 129.209C683.546 141.626 701.748 152.815 720.478 164.73L846.93 244.558C865.69 256.473 886.828 268.737 904.948 281.384L905.209 547.209L904.815 742.396L720.737 860.077C704.057 870.915 682.076 885.344 665.007 894.996L664.816 608.676C669.013 605.325 675.411 601.572 680.079 598.643L704.935 582.967C728.24 567.867 751.629 552.896 775.1 538.054C787.867 529.924 803.204 520.79 815.435 512.312C805.664 504.957 786.861 493.837 776.136 487.027L699.131 438.495C687.8 431.307 675.884 424.214 664.869 416.67L664.827 239.296C664.887 202.724 664.566 165.753 665.053 129.209Z"/><path fill="#FC9838" d="M375.904 505.033C383.093 504.577 392.025 504.806 399.354 504.823L436.792 504.914L552.086 505.007L619.535 504.971C629.551 504.951 641.805 504.355 651.514 505.312C659.226 506.073 660.876 515.488 652.711 520.507C648.123 521.261 638.996 521.019 634.092 521.017L602.648 520.997L492.568 520.98L413.853 520.907C401.948 520.903 388.757 521.395 377.024 520.359C369.851 519.726 368.274 509.848 375.904 505.033Z"/></svg>